<svg xmlns="http://www.w3.org/2000/svg" viewBox="0 0 1024 1024" width="1024" height="1024">
  <!--
    Yudh のアプリアイコン v12「Stencil Turf」:黒漆の地に、地盘格(英語の盘面)の 2×2 を喷漆で。
    青 3 マス(うち 1 つは模板の星 = 太简单)、右下は今のマス(橙の点線)。色は界面と同じ(青 #12e9d3・橙 #ff6412・黒 #161615)。
    macOS のアイコン格子(1024 の中に 824 角の角丸)。Windows 用は余白を詰めて同じ図を書き出す(scripts/make-icon.mjs)
  -->
  <defs>
    <clipPath id="sq"><rect x="100" y="100" width="824" height="824" rx="185" ry="185"/></clipPath>
    <filter id="spray" x="-6%" y="-6%" width="112%" height="112%">
      <feTurbulence type="fractalNoise" baseFrequency="0.035" numOctaves="2" seed="3" result="n"/>
      <feDisplacementMap in="SourceGraphic" in2="n" scale="9" xChannelSelector="R" yChannelSelector="G" result="d"/>
      <feTurbulence type="fractalNoise" baseFrequency="0.012" numOctaves="3" seed="11" result="m"/>
      <feColorMatrix in="m" type="matrix" values="0 0 0 0 0  0 0 0 0 0  0 0 0 0 0  0 0 0 -0.9 0.62" result="shade"/>
      <feComposite in="shade" in2="d" operator="in" result="s"/>
      <feMerge><feMergeNode in="d"/><feMergeNode in="s"/></feMerge>
    </filter>
    <filter id="grain" x="0" y="0" width="100%" height="100%">
      <feTurbulence type="fractalNoise" baseFrequency="0.9" numOctaves="2" seed="5"/>
      <feColorMatrix type="matrix" values="0 0 0 0 1  0 0 0 0 1  0 0 0 0 1  0 0 0 0.07 0"/>
    </filter>
    <radialGradient id="lacquer" cx="38%" cy="28%" r="85%"><stop offset="0" stop-color="#2b2d2f"/><stop offset="1" stop-color="#161615"/></radialGradient>
    <filter id="drop" x="-10%" y="-10%" width="120%" height="125%"><feDropShadow dx="0" dy="12" stdDeviation="14" flood-color="#000" flood-opacity="0.3"/></filter>
  </defs>
  <g filter="url(#drop)">
  <g clip-path="url(#sq)">
    <rect width="1024" height="1024" fill="url(#lacquer)"/>
    <rect width="1024" height="1024" filter="url(#grain)"/>
    <circle cx="300.3" cy="481.1" r="4.1" fill="#12e9d3" opacity="0.39"/>
    <circle cx="216.1" cy="327.4" r="1.8" fill="#12e9d3" opacity="0.60"/>
    <circle cx="508.9" cy="396.2" r="1.9" fill="#12e9d3" opacity="0.40"/>
    <circle cx="203.0" cy="441.5" r="2.1" fill="#12e9d3" opacity="0.46"/>
    <circle cx="232.0" cy="228.0" r="3.9" fill="#12e9d3" opacity="0.55"/>
    <circle cx="487.4" cy="341.5" r="4.9" fill="#12e9d3" opacity="0.49"/>
    <circle cx="442.4" cy="465.1" r="2.8" fill="#12e9d3" opacity="0.76"/>
    <circle cx="428.8" cy="507.3" r="4.1" fill="#12e9d3" opacity="0.54"/>
    <circle cx="237.1" cy="322.4" r="1.8" fill="#12e9d3" opacity="0.45"/>
    <circle cx="296.2" cy="222.8" r="2.8" fill="#12e9d3" opacity="0.64"/>
    <circle cx="222.7" cy="402.4" r="4.7" fill="#12e9d3" opacity="0.70"/>
    <circle cx="366.6" cy="521.8" r="3.6" fill="#12e9d3" opacity="0.79"/>
    <circle cx="342.1" cy="218.4" r="5.4" fill="#12e9d3" opacity="0.41"/>
    <circle cx="210.2" cy="445.6" r="2.2" fill="#12e9d3" opacity="0.59"/>
    <circle cx="522.7" cy="401.4" r="4.6" fill="#12e9d3" opacity="0.64"/>
    <circle cx="463.4" cy="258.4" r="4.3" fill="#12e9d3" opacity="0.65"/>
    <circle cx="225.7" cy="286.5" r="4.9" fill="#12e9d3" opacity="0.82"/>
    <circle cx="195.8" cy="387.6" r="1.8" fill="#12e9d3" opacity="0.70"/>
    <circle cx="247.6" cy="210.9" r="4.8" fill="#12e9d3" opacity="0.49"/>
    <circle cx="234.6" cy="470.6" r="1.7" fill="#12e9d3" opacity="0.58"/>
    <circle cx="425.9" cy="476.1" r="1.8" fill="#12e9d3" opacity="0.73"/>
    <circle cx="457.4" cy="462.9" r="3.1" fill="#12e9d3" opacity="0.79"/>
    <circle cx="494.8" cy="435.0" r="3.7" fill="#12e9d3" opacity="0.79"/>
    <circle cx="436.3" cy="197.9" r="2.7" fill="#12e9d3" opacity="0.56"/>
    <circle cx="246.5" cy="500.7" r="5.3" fill="#12e9d3" opacity="0.43"/>
    <circle cx="423.1" cy="485.7" r="2.5" fill="#12e9d3" opacity="0.59"/>
    <circle cx="543.3" cy="285.3" r="1.6" fill="#12e9d3" opacity="0.56"/>
    <circle cx="553.9" cy="478.3" r="5.3" fill="#12e9d3" opacity="0.70"/>
    <circle cx="500.2" cy="344.6" r="4.2" fill="#12e9d3" opacity="0.38"/>
    <circle cx="804.0" cy="257.8" r="5.0" fill="#12e9d3" opacity="0.75"/>
    <circle cx="546.2" cy="454.7" r="2.0" fill="#12e9d3" opacity="0.67"/>
    <circle cx="783.2" cy="410.0" r="2.4" fill="#12e9d3" opacity="0.43"/>
    <circle cx="594.5" cy="469.2" r="1.6" fill="#12e9d3" opacity="0.43"/>
    <circle cx="782.4" cy="448.7" r="1.7" fill="#12e9d3" opacity="0.79"/>
    <circle cx="561.9" cy="272.1" r="2.6" fill="#12e9d3" opacity="0.52"/>
    <circle cx="576.0" cy="460.8" r="4.9" fill="#12e9d3" opacity="0.85"/>
    <circle cx="511.3" cy="393.6" r="1.9" fill="#12e9d3" opacity="0.40"/>
    <circle cx="585.4" cy="479.1" r="4.8" fill="#12e9d3" opacity="0.43"/>
    <circle cx="846.4" cy="387.3" r="3.7" fill="#12e9d3" opacity="0.42"/>
    <circle cx="541.0" cy="326.6" r="3.7" fill="#12e9d3" opacity="0.84"/>
    <circle cx="773.8" cy="232.7" r="2.6" fill="#12e9d3" opacity="0.53"/>
    <circle cx="749.9" cy="511.2" r="3.7" fill="#12e9d3" opacity="0.74"/>
    <circle cx="596.6" cy="482.8" r="4.8" fill="#12e9d3" opacity="0.84"/>
    <circle cx="769.1" cy="220.1" r="4.8" fill="#12e9d3" opacity="0.72"/>
    <circle cx="686.4" cy="516.7" r="3.0" fill="#12e9d3" opacity="0.36"/>
    <circle cx="804.1" cy="385.5" r="2.6" fill="#12e9d3" opacity="0.70"/>
    <circle cx="811.1" cy="319.2" r="5.3" fill="#12e9d3" opacity="0.84"/>
    <circle cx="805.7" cy="319.2" r="2.5" fill="#12e9d3" opacity="0.46"/>
    <circle cx="708.8" cy="491.1" r="4.0" fill="#12e9d3" opacity="0.80"/>
    <circle cx="747.0" cy="229.6" r="4.1" fill="#12e9d3" opacity="0.75"/>
    <circle cx="807.0" cy="445.3" r="5.1" fill="#12e9d3" opacity="0.74"/>
    <circle cx="663.5" cy="205.3" r="2.3" fill="#12e9d3" opacity="0.74"/>
    <circle cx="273.6" cy="815.9" r="5.4" fill="#12e9d3" opacity="0.55"/>
    <circle cx="210.3" cy="770.6" r="4.4" fill="#12e9d3" opacity="0.44"/>
    <circle cx="454.7" cy="759.9" r="5.1" fill="#12e9d3" opacity="0.75"/>
    <circle cx="468.1" cy="804.2" r="5.4" fill="#12e9d3" opacity="0.68"/>
    <circle cx="266.4" cy="792.4" r="2.1" fill="#12e9d3" opacity="0.36"/>
    <circle cx="523.9" cy="633.2" r="3.7" fill="#12e9d3" opacity="0.82"/>
    <circle cx="196.0" cy="736.1" r="4.8" fill="#12e9d3" opacity="0.46"/>
    <circle cx="358.9" cy="807.1" r="2.5" fill="#12e9d3" opacity="0.64"/>
    <circle cx="351.7" cy="814.7" r="2.1" fill="#12e9d3" opacity="0.81"/>
    <circle cx="267.1" cy="785.8" r="3.9" fill="#12e9d3" opacity="0.80"/>
    <circle cx="200.0" cy="750.9" r="3.6" fill="#12e9d3" opacity="0.62"/>
    <circle cx="235.5" cy="644.8" r="3.3" fill="#12e9d3" opacity="0.44"/>
    <circle cx="535.9" cy="667.7" r="2.3" fill="#12e9d3" opacity="0.59"/>
    <circle cx="335.7" cy="505.1" r="2.9" fill="#12e9d3" opacity="0.61"/>
    <circle cx="196.6" cy="603.9" r="2.0" fill="#12e9d3" opacity="0.63"/>
    <circle cx="361.9" cy="806.1" r="4.6" fill="#12e9d3" opacity="0.60"/>
    <circle cx="200.5" cy="598.0" r="5.2" fill="#12e9d3" opacity="0.57"/>
    <circle cx="241.2" cy="561.4" r="3.6" fill="#12e9d3" opacity="0.70"/>
    <circle cx="208.9" cy="710.2" r="3.5" fill="#12e9d3" opacity="0.82"/>
    <circle cx="304.0" cy="492.2" r="5.3" fill="#12e9d3" opacity="0.48"/>
    <circle cx="188.9" cy="596.0" r="4.9" fill="#12e9d3" opacity="0.42"/>
    <circle cx="471.1" cy="769.3" r="1.9" fill="#12e9d3" opacity="0.47"/>
    <circle cx="510.5" cy="737.6" r="4.7" fill="#12e9d3" opacity="0.80"/>
    <circle cx="456.7" cy="803.9" r="4.2" fill="#12e9d3" opacity="0.42"/>
    <circle cx="498.4" cy="538.5" r="2.5" fill="#12e9d3" opacity="0.83"/>
    <circle cx="235.5" cy="756.4" r="5.5" fill="#12e9d3" opacity="0.77"/>
    <rect x="240.1" y="240.1" width="241.0" height="241.0" fill="#12e9d3" filter="url(#spray)"/>
    <rect x="542.9" y="240.1" width="241.0" height="241.0" fill="#12e9d3" filter="url(#spray)"/>
    <rect x="240.1" y="542.9" width="241.0" height="241.0" fill="#12e9d3" filter="url(#spray)"/>
    <mask id="bridge"><rect width="1024" height="1024" fill="#fff"/><rect x="656.8" y="240.1" width="13.3" height="241.0" fill="#000"/></mask>
    <path d="M663.4,295.5 L681.8,342.5 L732.2,345.5 L693.2,377.5 L705.9,426.3 L663.4,399.2 L620.9,426.3 L633.6,377.5 L594.6,345.5 L645.0,342.5 Z" fill="#161615" fill-opacity="0.92" mask="url(#bridge)"/>
    <path d="M556.8,614.6 L556.8,556.8 L614.6,556.8 M712.2,556.8 L770.1,556.8 L770.1,614.6 M770.1,712.2 L770.1,770.1 L712.2,770.1 M614.6,770.1 L556.8,770.1 L556.8,712.2 M646.5,556.8 L680.3,556.8 M646.5,770.1 L680.3,770.1 M556.8,646.5 L556.8,680.3 M770.1,646.5 L770.1,680.3" fill="none" stroke="#ff6412" stroke-width="27.7" stroke-linejoin="miter" filter="url(#spray)"/>
  </g>
  <rect x="101.5" y="101.5" width="821" height="821" rx="185" ry="185" fill="none" stroke="#ffffff" stroke-opacity="0.08" stroke-width="3"/>
  </g>
</svg>
