<svg xmlns="http://www.w3.org/2000/svg" viewBox="0 0 240 240" width="240" height="240"><title>颈部侧拉</title><defs><marker id="ah-FF7A1A" viewBox="0 0 10 10" refX="7" refY="5" markerWidth="4" markerHeight="4" orient="auto-start-reverse"><path d="M0 0 L10 5 L0 10 Z" fill="#FF7A1A"/></marker><marker id="ah-1FD1C4" viewBox="0 0 10 10" refX="7" refY="5" markerWidth="4" markerHeight="4" orient="auto-start-reverse"><path d="M0 0 L10 5 L0 10 Z" fill="#1FD1C4"/></marker><marker id="ah-0A0A0C" viewBox="0 0 10 10" refX="7" refY="5" markerWidth="4" markerHeight="4" orient="auto-start-reverse"><path d="M0 0 L10 5 L0 10 Z" fill="#0A0A0C"/></marker></defs><path d="M68.0 110 Q68.0 100 80.0 100 L160.0 100 Q172.0 100 172.0 110 L164.0 196 L76.0 196 Z" fill="#F4F2EC" stroke="#0A0A0C" stroke-width="6" stroke-linejoin="round" stroke-linecap="round" /><polyline points="70 108 60 156 66 196" fill="none" stroke="#0A0A0C" stroke-width="24" stroke-linecap="round" stroke-linejoin="round"/><polyline points="70 108 60 156 66 196" fill="none" stroke="#F4F2EC" stroke-width="16" stroke-linecap="round" stroke-linejoin="round"/><polyline points="170 108 180 156 174 196" fill="none" stroke="#0A0A0C" stroke-width="24" stroke-linecap="round" stroke-linejoin="round"/><polyline points="170 108 180 156 174 196" fill="none" stroke="#F4F2EC" stroke-width="16" stroke-linecap="round" stroke-linejoin="round"/><g transform="rotate(-28 112 58)"><circle cx="86" cy="62" r="6" fill="#F4F2EC" stroke="#0A0A0C" stroke-width="5"/><circle cx="138" cy="62" r="6" fill="#F4F2EC" stroke="#0A0A0C" stroke-width="5"/><circle cx="112" cy="58" r="26" fill="#F4F2EC" stroke="#0A0A0C" stroke-width="6"/><path d="M86 54 A26 26 0 0 1 138 54 Q127.6 56.7 112 52.8 Q96.4 56.7 86 54 Z" fill="#0A0A0C"/><circle cx="103" cy="62" r="3.2" fill="#0A0A0C"/><circle cx="121" cy="62" r="3.2" fill="#0A0A0C"/></g><path d="M128 18 Q96 20 80 48" fill="none" stroke="#FF7A1A" stroke-width="9" stroke-linecap="round" stroke-linejoin="round" marker-end="url(#ah-FF7A1A)"/><circle cx="172" cy="104" r="9" fill="#1FD1C4" stroke="#0A0A0C" stroke-width="4"/><path d="M172 118 L172 136" fill="none" stroke="#1FD1C4" stroke-width="6" stroke-linecap="round" stroke-linejoin="round" marker-end="url(#ah-1FD1C4)"/></svg>